<mxfile host="65bd71144e">
    <diagram id="b8ktaIeeIzfW4w9rLerg" name="ページ1">
        <mxGraphModel dx="691" dy="457" grid="1" gridSize="10" guides="1" tooltips="1" connect="1" arrows="1" fold="1" page="1" pageScale="1" pageWidth="827" pageHeight="1169" math="0" shadow="0">
            <root>
                <mxCell id="0"/>
                <mxCell id="1" parent="0"/>
                <mxCell id="108" value="" style="rounded=0;whiteSpace=wrap;html=1;" parent="1" vertex="1">
                    <mxGeometry y="40" width="820" height="460" as="geometry"/>
                </mxCell>
                <mxCell id="68" value="" style="rounded=1;whiteSpace=wrap;html=1;fillColor=#dae8fc;strokeColor=#6c8ebf;" parent="1" vertex="1">
                    <mxGeometry x="480" y="155" width="200" height="300" as="geometry"/>
                </mxCell>
                <mxCell id="7" value="" style="rounded=1;whiteSpace=wrap;html=1;" parent="1" vertex="1">
                    <mxGeometry x="160" y="180" width="154" height="265" as="geometry"/>
                </mxCell>
                <mxCell id="8" value="&lt;div style=&quot;background-color: rgb(255, 255, 255); font-family: &amp;quot;Droid Sans Mono&amp;quot;, &amp;quot;monospace&amp;quot;, monospace; line-height: 16px; white-space: pre;&quot;&gt;&lt;span&gt;&lt;font style=&quot;color: rgb(0, 0, 0);&quot;&gt; Posix API&lt;/font&gt;&lt;/span&gt;&lt;/div&gt;" style="rounded=1;whiteSpace=wrap;html=1;" parent="1" vertex="1">
                    <mxGeometry x="177" y="375" width="120" height="30" as="geometry"/>
                </mxCell>
                <mxCell id="9" value="&lt;div style=&quot;background-color: rgb(255, 255, 255); font-family: &amp;quot;Droid Sans Mono&amp;quot;, &amp;quot;monospace&amp;quot;, monospace; line-height: 16px; white-space: pre;&quot;&gt;&lt;span&gt;&lt;font style=&quot;color: rgb(0, 0, 0);&quot;&gt;RCLcpp&lt;/font&gt;&lt;/span&gt;&lt;/div&gt;" style="rounded=1;whiteSpace=wrap;html=1;" parent="1" vertex="1">
                    <mxGeometry x="177" y="225" width="120" height="30" as="geometry"/>
                </mxCell>
                <mxCell id="10" value="&lt;div style=&quot;background-color: rgb(255, 255, 255); font-family: &amp;quot;Droid Sans Mono&amp;quot;, &amp;quot;monospace&amp;quot;, monospace; line-height: 16px; white-space: pre;&quot;&gt;&lt;span&gt;&lt;font style=&quot;color: rgb(0, 0, 0);&quot;&gt;ROS APP&lt;/font&gt;&lt;/span&gt;&lt;/div&gt;" style="rounded=1;whiteSpace=wrap;html=1;" parent="1" vertex="1">
                    <mxGeometry x="177" y="195" width="120" height="30" as="geometry"/>
                </mxCell>
                <mxCell id="70" value="Additional features" style="text;html=1;align=center;verticalAlign=middle;resizable=0;points=[];autosize=1;strokeColor=none;fillColor=none;" parent="1" vertex="1">
                    <mxGeometry x="520" y="455" width="120" height="30" as="geometry"/>
                </mxCell>
                <mxCell id="87" value="ros node" style="text;html=1;align=center;verticalAlign=middle;whiteSpace=wrap;rounded=0;" parent="1" vertex="1">
                    <mxGeometry x="190" y="150" width="77" height="30" as="geometry"/>
                </mxCell>
                <mxCell id="90" value="Linux/windows" style="rounded=1;whiteSpace=wrap;html=1;" parent="1" vertex="1">
                    <mxGeometry x="177" y="405" width="120" height="30" as="geometry"/>
                </mxCell>
                <mxCell id="92" value="&lt;div style=&quot;background-color: rgb(255, 255, 255); font-family: &amp;quot;Droid Sans Mono&amp;quot;, &amp;quot;monospace&amp;quot;, monospace; line-height: 16px; white-space: pre;&quot;&gt;&lt;span&gt;&lt;font style=&quot;color: rgb(0, 0, 0);&quot;&gt;rcl&lt;/font&gt;&lt;/span&gt;&lt;/div&gt;" style="rounded=1;whiteSpace=wrap;html=1;" parent="1" vertex="1">
                    <mxGeometry x="177" y="255" width="120" height="30" as="geometry"/>
                </mxCell>
                <mxCell id="93" value="&lt;div style=&quot;background-color: rgb(255, 255, 255); font-family: &amp;quot;Droid Sans Mono&amp;quot;, &amp;quot;monospace&amp;quot;, monospace; line-height: 16px; white-space: pre;&quot;&gt;&lt;span&gt;&lt;font style=&quot;color: rgb(0, 0, 0);&quot;&gt;rmw_zenoh&lt;/font&gt;&lt;/span&gt;&lt;/div&gt;" style="rounded=1;whiteSpace=wrap;html=1;" parent="1" vertex="1">
                    <mxGeometry x="177" y="285" width="120" height="45" as="geometry"/>
                </mxCell>
                <mxCell id="94" value="&lt;div style=&quot;background-color: rgb(255, 255, 255); font-family: &amp;quot;Droid Sans Mono&amp;quot;, &amp;quot;monospace&amp;quot;, monospace; line-height: 16px; white-space: pre;&quot;&gt;&lt;span&gt;&lt;font style=&quot;color: rgb(0, 0, 0);&quot;&gt;zenoh&lt;/font&gt;&lt;/span&gt;&lt;/div&gt;" style="rounded=1;whiteSpace=wrap;html=1;" parent="1" vertex="1">
                    <mxGeometry x="177" y="330" width="120" height="45" as="geometry"/>
                </mxCell>
                <mxCell id="95" value="" style="rounded=1;whiteSpace=wrap;html=1;" parent="1" vertex="1">
                    <mxGeometry x="503" y="180" width="154" height="265" as="geometry"/>
                </mxCell>
                <mxCell id="96" value="&lt;div style=&quot;background-color: rgb(255, 255, 255); font-family: &amp;quot;Droid Sans Mono&amp;quot;, &amp;quot;monospace&amp;quot;, monospace; line-height: 16px; white-space: pre;&quot;&gt;&lt;div style=&quot;line-height: 16px;&quot;&gt;&lt;span&gt;&lt;font style=&quot;color: rgb(0, 0, 0);&quot;&gt; Posix/RTOS API&lt;/font&gt;&lt;/span&gt;&lt;/div&gt;&lt;/div&gt;" style="rounded=1;whiteSpace=wrap;html=1;" parent="1" vertex="1">
                    <mxGeometry x="520" y="375" width="120" height="30" as="geometry"/>
                </mxCell>
                <mxCell id="97" value="&lt;div style=&quot;background-color: rgb(255, 255, 255); font-family: &amp;quot;Droid Sans Mono&amp;quot;, &amp;quot;monospace&amp;quot;, monospace; line-height: 16px; white-space: pre;&quot;&gt;&lt;div style=&quot;line-height: 16px;&quot;&gt;&lt;span&gt;&lt;font style=&quot;color: rgb(0, 0, 0);&quot;&gt;RCLc&lt;/font&gt;&lt;/span&gt;&lt;/div&gt;&lt;/div&gt;" style="rounded=1;whiteSpace=wrap;html=1;" parent="1" vertex="1">
                    <mxGeometry x="520" y="225" width="120" height="30" as="geometry"/>
                </mxCell>
                <mxCell id="98" value="&lt;div style=&quot;background-color: rgb(255, 255, 255); font-family: &amp;quot;Droid Sans Mono&amp;quot;, &amp;quot;monospace&amp;quot;, monospace; line-height: 16px; white-space: pre;&quot;&gt;&lt;span&gt;&lt;font style=&quot;color: rgb(0, 0, 0);&quot;&gt;ROS APP&lt;/font&gt;&lt;/span&gt;&lt;/div&gt;" style="rounded=1;whiteSpace=wrap;html=1;" parent="1" vertex="1">
                    <mxGeometry x="520" y="195" width="120" height="30" as="geometry"/>
                </mxCell>
                <mxCell id="99" value="&lt;div style=&quot;background-color: rgb(255, 255, 255); font-family: &amp;quot;Droid Sans Mono&amp;quot;, &amp;quot;monospace&amp;quot;, monospace; line-height: 16px; white-space: pre;&quot;&gt;&lt;span&gt;&lt;font style=&quot;color: rgb(0, 0, 0);&quot;&gt;RTOS/Linux&lt;/font&gt;&lt;/span&gt;&lt;/div&gt;" style="rounded=1;whiteSpace=wrap;html=1;" parent="1" vertex="1">
                    <mxGeometry x="520" y="405" width="120" height="30" as="geometry"/>
                </mxCell>
                <mxCell id="100" value="&lt;div style=&quot;background-color: rgb(255, 255, 255); font-family: &amp;quot;Droid Sans Mono&amp;quot;, &amp;quot;monospace&amp;quot;, monospace; line-height: 16px; white-space: pre;&quot;&gt;&lt;span&gt;&lt;font style=&quot;color: rgb(0, 0, 0);&quot;&gt;rcl by microros&lt;/font&gt;&lt;/span&gt;&lt;/div&gt;" style="rounded=1;whiteSpace=wrap;html=1;" parent="1" vertex="1">
                    <mxGeometry x="520" y="255" width="120" height="30" as="geometry"/>
                </mxCell>
                <mxCell id="101" value="&lt;div style=&quot;font-family: &amp;quot;Droid Sans Mono&amp;quot;, &amp;quot;monospace&amp;quot;, monospace; line-height: 16px; white-space: pre;&quot;&gt;&lt;span&gt;&lt;font style=&quot;color: rgb(0, 0, 0);&quot;&gt;rmw_zenoh_pico&lt;/font&gt;&lt;/span&gt;&lt;/div&gt;" style="rounded=1;whiteSpace=wrap;html=1;fillColor=#b1ddf0;strokeColor=#10739e;labelBackgroundColor=none;" parent="1" vertex="1">
                    <mxGeometry x="520" y="285" width="120" height="45" as="geometry"/>
                </mxCell>
                <mxCell id="102" value="&lt;div style=&quot;background-color: rgb(255, 255, 255); font-family: &amp;quot;Droid Sans Mono&amp;quot;, &amp;quot;monospace&amp;quot;, monospace; line-height: 16px; white-space: pre;&quot;&gt;&lt;span&gt;&lt;font style=&quot;color: rgb(0, 0, 0);&quot;&gt;zenoh_pico&lt;/font&gt;&lt;/span&gt;&lt;/div&gt;" style="rounded=1;whiteSpace=wrap;html=1;" parent="1" vertex="1">
                    <mxGeometry x="520" y="330" width="120" height="45" as="geometry"/>
                </mxCell>
                <mxCell id="103" value="ros node" style="text;html=1;align=center;verticalAlign=middle;whiteSpace=wrap;rounded=0;" parent="1" vertex="1">
                    <mxGeometry x="533.5" y="150" width="93" height="30" as="geometry"/>
                </mxCell>
                <mxCell id="112" style="edgeStyle=orthogonalEdgeStyle;html=1;entryX=0;entryY=0.75;entryDx=0;entryDy=0;exitX=1;exitY=0.75;exitDx=0;exitDy=0;startArrow=classic;startFill=1;" parent="1" edge="1">
                    <mxGeometry relative="1" as="geometry">
                        <mxPoint x="297" y="352" as="sourcePoint"/>
                        <mxPoint x="520" y="352" as="targetPoint"/>
                    </mxGeometry>
                </mxCell>
            </root>
        </mxGraphModel>
    </diagram>
</mxfile>
